# File created by Blade
# Date/Time:  Thu Sep 25 19:36:54 2014
# Frame Rate: 120.000 fps
#------------------------------------------------------
:FULLY-SPECIFIED
:DEGREES
548
root 1.373923 34.161173 -0.837634 97.626074 0.031473 -30.350714
Spine -34.425812 -2.808356 15.314604
Head -53.343764 30.660506 14.751568
LeftShoulder -14.481313 2.449665 46.695794
LeftArm 47.828255 -45.087247 -18.727861
LeftForeArm 14.803714 -0.000000 15.641313
LeftHand -27.879654 -0.000000 -0.906894
LeftHandThumb1 -26.253704 0.000000 33.147579
RightShoulder -26.796249 0.993237 -30.839672
RightArm -29.810118 -22.728526 52.744570
RightForeArm -42.195440 -0.000000 11.636817
RightHand -1.476639 -0.000000 23.630516
RightHandThumb1 -24.326973 -0.000000 -32.862282
LeftUpLeg -95.416963 23.486925 -4.804920
LeftLeg -8.983085 -0.000000 0.000000
LeftFoot -0.951179 7.494603 -12.243468
LeftToeBase 6.853292 -0.000000 -0.000000
RightUpLeg 18.444773 20.217204 -31.061939
RightLeg 100.229721 -0.000000 -0.000000
RightFoot 31.588180 -15.625113 18.297032
RightToeBase 8.042011 -0.000000 -0.000000
549
root 1.365131 34.160159 -0.838003 97.624437 0.082997 -30.330076
Spine -34.479146 -2.837581 15.247138
Head -53.209842 30.530071 14.951094
LeftShoulder -14.428080 2.481308 46.768885
LeftArm 47.796985 -45.087323 -18.806326
LeftForeArm 14.877914 0.000000 15.675586
LeftHand -27.828876 0.000000 -1.074858
LeftHandThumb1 -26.253704 0.000000 33.147579
RightShoulder -26.766532 0.936476 -30.782092
RightArm -29.851249 -22.678390 52.755796
RightForeArm -42.164250 -0.000000 11.647861
RightHand -1.433058 -0.000000 23.408337
RightHandThumb1 -24.326973 -0.000000 -32.862282
LeftUpLeg -95.476596 23.461573 -4.916620
LeftLeg -9.009537 -0.000000 0.000000
LeftFoot -0.904330 7.368175 -12.224548
LeftToeBase 6.891408 -0.000000 -0.000000
RightUpLeg 18.469848 20.175339 -31.038358
RightLeg 100.239477 -0.000000 -0.000000
RightFoot 31.572651 -15.664722 18.305080
RightToeBase 7.979826 -0.000000 -0.000000
550
root 1.355278 34.159812 -0.838230 97.619756 0.124194 -30.299447
Spine -34.527370 -2.895503 15.168642
Head -53.105326 30.420152 15.144022
LeftShoulder -14.393161 2.498845 46.819456
LeftArm 47.718178 -45.050147 -18.773674
LeftForeArm 14.826195 -0.000000 15.722307
LeftHand -27.946351 -0.000000 -1.217275
LeftHandThumb1 -26.253704 0.000000 33.147579
RightShoulder -26.748429 0.904127 -30.727283
RightArm -29.886718 -22.645932 52.782380
RightForeArm -42.124869 -0.000000 11.626079
RightHand -1.497331 -0.000000 23.360183
RightHandThumb1 -24.326973 -0.000000 -32.862282
LeftUpLeg -95.523332 23.432907 -5.037912
LeftLeg -9.049240 -0.000000 0.000000
LeftFoot -0.849425 7.207908 -12.273599
LeftToeBase 6.936548 -0.000000 -0.000000
RightUpLeg 18.496035 20.107547 -31.028807
RightLeg 100.253559 -0.000000 -0.000000
RightFoot 31.622218 -15.702912 18.340415
RightToeBase 7.879057 -0.000000 -0.000000
551
root 1.344369 34.161384 -0.839241 97.610664 0.166315 -30.256388
Spine -34.563364 -2.969529 15.084401
Head -53.045886 30.299316 15.335715
LeftShoulder -14.339870 2.436642 46.874754
LeftArm 47.529851 -44.929928 -18.607540
LeftForeArm 14.731451 -0.000000 15.704096
LeftHand -27.827971 -0.000000 -0.981167
LeftHandThumb1 -26.253704 0.000000 33.147579
RightShoulder -26.757352 0.923564 -30.675249
RightArm -29.945275 -22.589790 52.786104
RightForeArm -42.140782 -0.000000 11.600009
RightHand -1.453103 0.000000 23.080491
RightHandThumb1 -24.326973 -0.000000 -32.862282
LeftUpLeg -95.557230 23.403682 -5.125282
LeftLeg -9.081288 -0.000000 0.000000
LeftFoot -0.792246 7.067590 -12.372728
LeftToeBase 6.990857 -0.000000 -0.000000
RightUpLeg 18.528687 20.012318 -31.019193
RightLeg 100.280357 -0.000000 -0.000000
RightFoot 31.633875 -15.749497 18.400625
RightToeBase 7.917630 -0.000000 -0.000000
552
root 1.332099 34.163004 -0.840220 97.584604 0.215415 -30.222889
Spine -34.565357 -3.042081 15.008824
Head -53.046043 30.229012 15.471539
LeftShoulder -14.317720 2.437489 46.899914
LeftArm 47.464537 -44.941973 -18.571771
LeftForeArm 14.733837 -0.000000 15.716249
LeftHand -27.942067 -0.000000 -0.970005
LeftHandThumb1 -26.253704 0.000000 33.147579
RightShoulder -26.794873 0.943313 -30.642471
RightArm -29.972686 -22.496341 52.788329
RightForeArm -42.228493 -0.000000 11.565240
RightHand -1.562675 -0.000000 23.185665
RightHandThumb1 -24.326973 -0.000000 -32.862282
LeftUpLeg -95.554201 23.397544 -5.160802
LeftLeg -9.115040 -0.000000 0.000000
LeftFoot -0.751061 6.950156 -12.492774
LeftToeBase 7.075047 -0.000000 -0.000000
RightUpLeg 18.567030 19.916139 -31.002466
RightLeg 100.305436 -0.000000 -0.000000
RightFoot 31.673467 -15.783597 18.453012
RightToeBase 7.808947 -0.000000 -0.000000
